# xmcd
#
# Track frame offsets:
#	150
#	14945
#	30832
#	44415
#	55275
#	66235
#	77815
#	91907
#	105232
#	119417
#	136460
#	150305
#	161547
#	176105
#
# Disc length: 2599 seconds
#
# Revision: 0
# Processed by: cddbd v1.4PL0 Copyright (c) Steve Scherf et al.
# Submitted via: dBpowerAMP V4.0
#
DISCID=b20a250e
DTITLE=Clara Nunes - Meus Momentos
DYEAR=1999
DGENRE=Vocal
TTITLE0=Clara Nunes - Tristeza Pe no Chao
TTITLE1=Clara Nunes - Voce Passa, Eu Acho Graca
TTITLE2=Clara Nunes - Basta Um Dia
TTITLE3=Clara Nunes - Guerreira
TTITLE4=Clara Nunes - Meus Tempos de Crianca
TTITLE5=Clara Nunes - Alvorada no Morro
TTITLE6=Clara Nunes - Festa Para Um Rei Negro
TTITLE7=Clara Nunes - Coracao Leviano
TTITLE8=Clara Nunes - Tudo E Ilusao
TTITLE9=Clara Nunes - Serrinha
TTITLE10=Clara Nunes - Feitio de Oracao
TTITLE11=Clara Nunes - A Deusa dos Orixas
TTITLE12=Clara Nunes - Sem Companhia
TTITLE13=Clara Nunes - Macunaima
EXTD=
EXTT0=
EXTT1=
EXTT2=
EXTT3=
EXTT4=
EXTT5=
EXTT6=
EXTT7=
EXTT8=
EXTT9=
EXTT10=
EXTT11=
EXTT12=
EXTT13=
PLAYORDER=
